<mxfile host="app.diagrams.net" modified="2024-01-28T09:06:30.996Z" agent="Mozilla/5.0 (Windows NT 10.0; Win64; x64) AppleWebKit/537.36 (KHTML, like Gecko) Chrome/120.0.0.0 Safari/537.36" version="22.1.21" etag="qGwJHfHXVR2Jw8QQYD5d" type="github">
  <diagram name="第 1 页" id="IL_kPdzOYLmYY2tkdyQ2">
    <mxGraphModel>
      <root>
        <mxCell id="0" />
        <mxCell id="1" parent="0" />
      </root>
    </mxGraphModel>
  </diagram>
</mxfile>
